<svg width="79" height="42" viewBox="0 0 79 42" fill="none" xmlns="http://www.w3.org/2000/svg">
<g filter="url(#filter0_d)">
<path d="M5 1L56.2258 1V32.9706H30.6129H25.183C24.4582 31.5497 23.298 30.3969 21.871 29.6813C19.7597 28.6226 17.2725 28.6226 15.1612 29.6813C13.7343 30.3969 12.5741 31.5497 11.8493 32.9706H5L5 1Z" stroke="white" stroke-width="2"/>
</g>
<path d="M23.3548 36.3971C23.3548 39.0773 21.1884 41.2501 18.5161 41.2501C15.8437 41.2501 13.6774 39.0773 13.6774 36.3971C13.6774 33.7169 15.8437 31.5442 18.5161 31.5442C21.1884 31.5442 23.3548 33.7169 23.3548 36.3971ZM16.0967 36.3971C16.0967 37.7372 17.1799 38.8236 18.5161 38.8236C19.8523 38.8236 20.9354 37.7372 20.9354 36.3971C20.9354 35.057 19.8523 33.9707 18.5161 33.9707C17.1799 33.9707 16.0967 35.057 16.0967 36.3971Z" fill="white"/>
<path d="M74.1613 36.3971C74.1613 39.0773 71.9949 41.2501 69.3226 41.2501C66.6503 41.2501 64.4839 39.0773 64.4839 36.3971C64.4839 33.7169 66.6503 31.5442 69.3226 31.5442C71.9949 31.5442 74.1613 33.7169 74.1613 36.3971ZM66.9032 36.3971C66.9032 37.7372 67.9864 38.8236 69.3226 38.8236C70.6588 38.8236 71.742 37.7372 71.742 36.3971C71.742 35.057 70.6588 33.9707 69.3226 33.9707C67.9864 33.9707 66.9032 35.057 66.9032 36.3971Z" fill="white"/>
<path d="M60.6451 5.85303L68.7865 5.85303L73.3285 12.686L78 19.7139V32.9707H75.9894C75.2646 31.5498 74.1044 30.397 72.6775 29.6814C70.5662 28.6227 68.079 28.6227 65.9677 29.6814C64.5407 30.397 63.3805 31.5498 62.6557 32.9707H60.6451L60.6451 5.85303Z" stroke="white" stroke-width="2"/>
<path d="M64 11C64 10.4477 64.4477 10 65 10H67.1958C67.5405 10 67.861 10.1776 68.0438 10.47L73.0438 18.47C73.46 19.1361 72.9812 20 72.1958 20H65C64.4477 20 64 19.5523 64 19V15V11Z" fill="white"/>
<path d="M23.8057 16.4883C21.8419 14.5246 21.8419 11.3407 23.8057 9.37691C25.7695 7.41315 28.9534 7.41315 30.9171 9.37691L39.0444 17.5042L31.933 24.6156L23.8057 16.4883Z" fill="white"/>
<path d="M32.9489 9.37675C34.9127 7.41299 38.0966 7.41299 40.0603 9.37675C42.0241 11.3405 42.0241 14.5244 40.0603 16.4881L31.933 24.6155L24.8216 17.5041L32.9489 9.37675Z" fill="white"/>
<defs>
<filter id="filter0_d" x="0" y="0" width="61.2258" height="41.9706" filterUnits="userSpaceOnUse" color-interpolation-filters="sRGB">
<feFlood flood-opacity="0" result="BackgroundImageFix"/>
<feColorMatrix in="SourceAlpha" type="matrix" values="0 0 0 0 0 0 0 0 0 0 0 0 0 0 0 0 0 0 127 0"/>
<feOffset dy="4"/>
<feGaussianBlur stdDeviation="2"/>
<feColorMatrix type="matrix" values="0 0 0 0 0 0 0 0 0 0 0 0 0 0 0 0 0 0 0.25 0"/>
<feBlend mode="normal" in2="BackgroundImageFix" result="effect1_dropShadow"/>
<feBlend mode="normal" in="SourceGraphic" in2="effect1_dropShadow" result="shape"/>
</filter>
</defs>
</svg>
