<svg width="408" height="46" viewBox="0 0 408 46" fill="none" xmlns="http://www.w3.org/2000/svg">
<path d="M2.312 23.088C2.376 18.864 3.72 14.768 6.216 11.248C8.136 8.56 10.76 6.32 13.768 4.72C16.776 3.184 20.168 2.352 23.56 2.352C28.488 2.352 33.096 3.888 36.872 6.832C37.832 7.664 38.024 9.136 37.32 10.16C36.488 11.184 34.952 11.376 33.992 10.672C31.112 8.304 27.528 7.088 23.56 7.088C22.664 7.088 21.832 7.152 21 7.28C20.424 7.344 19.976 7.92 20.104 8.496C20.168 9.072 20.744 9.52 21.32 9.392C22.088 9.328 22.792 9.264 23.56 9.264C27.016 9.264 30.152 10.288 32.648 12.336C34.504 13.808 37.448 13.424 38.984 11.504C39.048 11.504 39.048 11.504 39.048 11.44C40.456 9.456 40.136 6.704 38.216 5.104C34.056 1.84 28.936 0.175999 23.496 0.175999C19.784 0.175999 16.072 1.072 12.744 2.8C9.48 4.528 6.6 7.024 4.424 9.968C1.672 13.872 0.2 18.416 0.2 23.088C0.2 29.04 2.504 34.672 6.728 38.96C6.984 39.216 7.24 39.28 7.496 39.28C7.816 39.28 8.072 39.216 8.264 38.96C8.712 38.576 8.712 37.872 8.264 37.424C4.488 33.584 2.376 28.464 2.312 23.088ZM39.048 34.736C39.048 34.672 38.984 34.672 38.984 34.672C37.448 32.816 34.568 32.432 32.648 33.84C30.024 35.888 27.016 36.912 23.56 36.912C19.784 36.912 16.136 35.504 13.384 32.88C10.76 30.32 9.288 26.736 9.288 23.088C9.288 19.44 10.696 16.048 13.32 13.296C14.472 12.272 15.688 11.44 17.032 10.736C17.608 10.48 17.8 9.84 17.544 9.328C17.288 8.752 16.648 8.56 16.136 8.816C14.536 9.584 13.128 10.544 11.848 11.76C8.712 14.96 7.112 18.864 7.112 23.088C7.112 27.312 8.84 31.472 11.848 34.416C15.048 37.424 19.208 39.088 23.56 39.088C27.528 39.088 31.048 37.936 33.928 35.568C34.888 34.864 36.488 35.056 37.32 36.016C38.024 37.104 37.896 38.576 36.872 39.344C33.096 42.288 28.488 43.888 23.56 43.888C19.976 43.888 16.52 42.992 13.384 41.264C12.872 41.008 12.232 41.2 11.912 41.712C11.656 42.288 11.848 42.928 12.36 43.184C15.752 45.04 19.656 46 23.56 46C28.936 46 34.056 44.336 38.216 41.072C40.136 39.536 40.456 36.72 39.048 34.736ZM55.541 16.816C54.965 16.624 54.325 16.944 54.133 17.456C53.557 19.312 53.237 21.168 53.237 23.088C53.237 27.376 54.837 31.536 57.653 34.416C60.469 37.424 64.245 39.088 68.277 39.088C72.117 39.088 75.829 37.424 78.645 34.416C81.461 31.472 83.061 27.312 83.061 23.088C83.061 18.864 81.461 14.768 78.645 11.76C75.829 8.752 72.181 7.088 68.277 7.088C64.181 7.088 60.469 8.688 57.653 11.696C57.461 11.888 57.269 12.144 57.077 12.336C56.693 12.784 56.757 13.488 57.205 13.872C57.653 14.256 58.357 14.192 58.741 13.744C58.869 13.552 59.061 13.36 59.189 13.232C61.621 10.608 64.757 9.264 68.277 9.264C71.541 9.264 74.677 10.672 77.045 13.232C79.477 15.792 80.885 19.44 80.885 23.088C80.885 26.8 79.477 30.384 77.045 32.944C74.613 35.504 71.541 36.912 68.277 36.912C64.821 36.912 61.685 35.568 59.189 32.88C56.757 30.384 55.413 26.864 55.413 23.088C55.413 21.424 55.669 19.76 56.181 18.16C56.373 17.648 56.117 17.008 55.541 16.816ZM83.573 7.024C79.733 2.736 74.037 0.175999 68.277 0.175999C62.325 0.175999 56.629 2.672 52.597 7.024C48.501 11.312 46.325 17.008 46.325 23.088C46.325 29.232 48.565 34.928 52.597 39.216C56.693 43.568 62.389 46 68.277 46C73.973 46 79.669 43.44 83.573 39.216C83.701 39.024 83.829 38.896 83.957 38.768C84.341 38.32 84.341 37.616 83.893 37.232C83.445 36.848 82.741 36.848 82.357 37.296C82.229 37.424 82.101 37.552 81.973 37.744C78.453 41.584 73.333 43.888 68.277 43.888C62.965 43.888 57.845 41.648 54.197 37.68C50.485 33.84 48.437 28.656 48.437 23.088C48.437 17.584 50.485 12.4 54.197 8.496C57.781 4.592 62.901 2.352 68.277 2.352C73.397 2.352 78.517 4.592 81.973 8.496C85.749 12.464 87.797 17.648 87.797 23.088C87.797 26.16 87.157 29.104 85.941 31.92C85.685 32.432 85.877 33.072 86.453 33.328C86.965 33.584 87.669 33.328 87.861 32.816C89.269 29.744 89.973 26.48 89.973 23.088C89.973 17.136 87.733 11.376 83.573 7.024ZM126.338 1.968C123.906 1.968 121.986 3.952 121.986 6.32V28.016L118.594 23.28C118.21 22.768 117.57 22.704 117.058 23.024C116.546 23.408 116.482 24.048 116.802 24.56L122.178 31.984C122.434 32.368 122.946 32.496 123.394 32.368C123.842 32.24 124.162 31.792 124.162 31.344V6.32C124.162 5.168 125.122 4.144 126.338 4.144C127.554 4.144 128.578 5.168 128.578 6.32V41.584C128.578 42.8 127.554 43.888 126.338 43.888C125.762 43.888 125.122 43.568 124.674 43.056C124.674 42.992 124.674 42.992 124.61 42.992C124.546 42.928 124.546 42.864 124.482 42.864C124.482 42.8 124.482 42.736 124.418 42.736L105.026 15.792C104.706 15.408 104.258 15.216 103.81 15.408C103.362 15.536 103.042 15.92 103.042 16.432V41.584C103.042 42.8 102.018 43.888 100.866 43.888C99.586 43.888 98.562 42.864 98.562 41.584V24.176C98.562 23.6 98.114 23.088 97.538 23.088C96.898 23.088 96.45 23.6 96.45 24.176V41.584C96.45 44.016 98.434 46 100.866 46C103.234 46 105.218 44.016 105.218 41.584V19.76L122.626 43.952C122.754 44.144 122.946 44.336 123.074 44.464C123.906 45.424 125.122 46 126.338 46C128.77 46 130.754 44.016 130.754 41.584V6.32C130.754 3.952 128.77 1.968 126.338 1.968ZM97.538 18.8C98.114 18.8 98.562 18.352 98.562 17.712V6.256C98.562 6.256 98.562 6.256 98.562 6.192C98.562 5.488 98.882 4.784 99.458 4.4C100.482 3.696 101.89 3.888 102.594 4.848L113.986 20.656C114.242 20.976 114.562 21.104 114.882 21.104C115.074 21.104 115.33 21.04 115.522 20.912C115.97 20.528 116.098 19.888 115.778 19.376L104.322 3.568C102.978 1.648 100.226 1.2 98.178 2.608C97.026 3.44 96.322 4.912 96.45 6.32V17.712C96.45 18.352 96.898 18.8 97.538 18.8ZM157.872 22C157.232 22 156.784 22.512 156.784 23.088V41.584C156.784 42.864 155.824 43.888 154.544 43.888C153.264 43.888 152.24 42.864 152.24 41.584V9.2C152.24 8.624 151.792 8.112 151.152 8.112H141.616C140.336 8.112 139.312 7.088 139.312 5.808C139.312 4.528 140.336 3.568 141.616 3.568C142.192 3.568 142.704 3.056 142.704 2.48C142.704 1.84 142.192 1.392 141.616 1.392C139.12 1.392 137.2 3.312 137.2 5.808C137.2 8.24 139.12 10.288 141.616 10.288H150.128V41.584C150.128 44.016 152.112 46 154.544 46C156.976 46 158.96 44.08 158.96 41.584V23.088C158.96 22.512 158.448 22 157.872 22ZM167.536 1.392H147.376C146.8 1.392 146.288 1.84 146.288 2.48C146.288 3.056 146.8 3.568 147.376 3.568H167.536C168.752 3.568 169.776 4.528 169.776 5.808C169.776 7.024 168.688 8.112 167.536 8.112H157.872C157.232 8.112 156.784 8.624 156.784 9.2V17.328C156.784 17.904 157.232 18.416 157.872 18.416C158.448 18.416 158.96 17.904 158.96 17.328V10.288H167.536C169.904 10.288 171.952 8.24 171.952 5.808C171.952 3.376 169.968 1.392 167.536 1.392ZM213.845 39.984L206.165 19.504C205.973 18.928 205.333 18.672 204.757 18.864C204.181 19.056 203.925 19.696 204.117 20.272L211.797 40.752C212.245 41.968 211.669 43.312 210.453 43.76C210.325 43.824 210.069 43.888 209.685 43.888C208.725 43.888 207.893 43.312 207.573 42.416L204.629 34.544C204.501 34.096 204.053 33.84 203.605 33.84H188.885C188.437 33.84 187.989 34.096 187.861 34.544L184.853 42.416C184.533 43.312 183.701 43.888 182.741 43.888C182.421 43.888 182.165 43.824 181.973 43.76C180.757 43.312 180.181 41.968 180.565 40.752L194.005 5.04C194.325 4.144 195.285 3.568 196.181 3.568H196.245C197.205 3.568 198.037 4.144 198.421 5.04L202.453 15.856C202.709 16.432 203.349 16.752 203.861 16.496C204.437 16.304 204.693 15.664 204.501 15.088L200.405 4.208C199.701 2.48 198.037 1.392 196.181 1.456C194.453 1.392 192.661 2.544 191.957 4.272L178.581 40.048C177.749 42.416 178.901 44.912 181.205 45.808C181.717 45.936 182.229 46 182.741 46C184.533 46 186.197 44.912 186.901 43.184L189.589 36.016H202.837L205.589 43.184C206.165 44.912 207.829 46 209.685 46C210.005 46 210.645 46 211.221 45.808C213.525 44.912 214.677 42.416 213.845 39.984ZM192.917 23.856C192.405 23.664 191.765 23.984 191.509 24.496L190.293 27.888C190.165 28.208 190.165 28.592 190.421 28.848C190.613 29.168 190.933 29.36 191.317 29.36H201.109C201.493 29.36 201.813 29.168 202.005 28.848C202.197 28.592 202.261 28.208 202.133 27.888L197.205 14.832C197.077 14.384 196.629 14.128 196.181 14.128C195.733 14.128 195.349 14.384 195.221 14.832L193.109 20.336C192.917 20.848 193.173 21.488 193.749 21.68C194.325 21.936 194.965 21.616 195.157 21.104L196.181 18.288L199.573 27.184H192.853L193.557 25.264C193.749 24.752 193.493 24.112 192.917 23.856ZM222.687 23.088C222.751 18.864 224.095 14.768 226.591 11.248C228.511 8.56 231.135 6.32 234.143 4.72C237.151 3.184 240.543 2.352 243.935 2.352C248.863 2.352 253.471 3.888 257.247 6.832C258.207 7.664 258.399 9.136 257.695 10.16C256.863 11.184 255.327 11.376 254.367 10.672C251.487 8.304 247.903 7.088 243.935 7.088C243.039 7.088 242.207 7.152 241.375 7.28C240.799 7.344 240.351 7.92 240.479 8.496C240.543 9.072 241.119 9.52 241.695 9.392C242.463 9.328 243.167 9.264 243.935 9.264C247.391 9.264 250.527 10.288 253.023 12.336C254.879 13.808 257.823 13.424 259.359 11.504C259.423 11.504 259.423 11.504 259.423 11.44C260.831 9.456 260.511 6.704 258.591 5.104C254.431 1.84 249.311 0.175999 243.871 0.175999C240.159 0.175999 236.447 1.072 233.119 2.8C229.855 4.528 226.975 7.024 224.799 9.968C222.047 13.872 220.575 18.416 220.575 23.088C220.575 29.04 222.879 34.672 227.103 38.96C227.359 39.216 227.615 39.28 227.871 39.28C228.191 39.28 228.447 39.216 228.639 38.96C229.087 38.576 229.087 37.872 228.639 37.424C224.863 33.584 222.751 28.464 222.687 23.088ZM259.423 34.736C259.423 34.672 259.359 34.672 259.359 34.672C257.823 32.816 254.943 32.432 253.023 33.84C250.399 35.888 247.391 36.912 243.935 36.912C240.159 36.912 236.511 35.504 233.759 32.88C231.135 30.32 229.663 26.736 229.663 23.088C229.663 19.44 231.071 16.048 233.695 13.296C234.847 12.272 236.063 11.44 237.407 10.736C237.983 10.48 238.175 9.84 237.919 9.328C237.663 8.752 237.023 8.56 236.511 8.816C234.911 9.584 233.503 10.544 232.223 11.76C229.087 14.96 227.487 18.864 227.487 23.088C227.487 27.312 229.215 31.472 232.223 34.416C235.423 37.424 239.583 39.088 243.935 39.088C247.903 39.088 251.423 37.936 254.303 35.568C255.263 34.864 256.863 35.056 257.695 36.016C258.399 37.104 258.271 38.576 257.247 39.344C253.471 42.288 248.863 43.888 243.935 43.888C240.351 43.888 236.895 42.992 233.759 41.264C233.247 41.008 232.607 41.2 232.287 41.712C232.031 42.288 232.223 42.928 232.735 43.184C236.127 45.04 240.031 46 243.935 46C249.311 46 254.431 44.336 258.591 41.072C260.511 39.536 260.831 36.72 259.423 34.736ZM287.372 22C286.732 22 286.284 22.512 286.284 23.088V41.584C286.284 42.864 285.324 43.888 284.044 43.888C282.764 43.888 281.74 42.864 281.74 41.584V9.2C281.74 8.624 281.292 8.112 280.652 8.112H271.116C269.836 8.112 268.812 7.088 268.812 5.808C268.812 4.528 269.836 3.568 271.116 3.568C271.692 3.568 272.204 3.056 272.204 2.48C272.204 1.84 271.692 1.392 271.116 1.392C268.62 1.392 266.7 3.312 266.7 5.808C266.7 8.24 268.62 10.288 271.116 10.288H279.628V41.584C279.628 44.016 281.612 46 284.044 46C286.476 46 288.46 44.08 288.46 41.584V23.088C288.46 22.512 287.948 22 287.372 22ZM297.036 1.392H276.876C276.3 1.392 275.788 1.84 275.788 2.48C275.788 3.056 276.3 3.568 276.876 3.568H297.036C298.252 3.568 299.276 4.528 299.276 5.808C299.276 7.024 298.188 8.112 297.036 8.112H287.372C286.732 8.112 286.284 8.624 286.284 9.2V17.328C286.284 17.904 286.732 18.416 287.372 18.416C287.948 18.416 288.46 17.904 288.46 17.328V10.288H297.036C299.404 10.288 301.452 8.24 301.452 5.808C301.452 3.376 299.468 1.392 297.036 1.392ZM359.809 37.872C356.673 41.648 352.065 43.888 347.137 43.888C338.049 43.888 330.625 36.464 330.625 27.376V5.808C330.625 4.528 331.649 3.568 332.929 3.568C334.209 3.568 335.233 4.528 335.233 5.808V13.168C335.233 13.808 335.681 14.256 336.321 14.256C336.897 14.256 337.409 13.808 337.409 13.168V5.808C337.409 3.376 335.361 1.392 332.929 1.392C330.433 1.392 328.513 3.312 328.513 5.808V27.376C328.513 37.68 336.833 46 347.137 46C352.705 46 357.953 43.568 361.472 39.216C361.857 38.768 361.793 38.064 361.345 37.68C360.897 37.36 360.193 37.424 359.809 37.872ZM361.345 1.392C358.785 1.392 356.801 3.312 356.801 5.808V27.376C356.801 32.752 352.449 37.104 347.137 37.104C341.76 37.104 337.409 32.752 337.409 27.376V18.48C337.409 17.904 336.897 17.456 336.321 17.456C335.681 17.456 335.233 17.904 335.233 18.48V27.376C335.233 33.968 340.545 39.28 347.137 39.28C353.665 39.28 358.977 33.968 358.977 27.376V5.808C358.977 4.528 360.001 3.568 361.345 3.568C362.625 3.568 363.585 4.528 363.585 5.808V27.376C363.585 29.04 363.329 30.704 362.817 32.24C362.689 32.816 363.009 33.456 363.521 33.648C364.097 33.776 364.737 33.456 364.929 32.88C365.441 31.152 365.761 29.296 365.761 27.376V5.808C365.761 3.312 363.777 1.392 361.345 1.392ZM380.97 23.984C383.146 25.008 385.77 25.84 389.098 26.48C389.162 26.48 389.226 26.48 389.29 26.48C392.618 27.12 395.498 28.08 397.098 29.168C397.802 29.616 398.25 30.064 398.634 30.64C398.89 31.088 399.018 31.472 399.018 32.048C399.018 33.264 398.25 34.48 396.842 35.504C395.05 36.784 392.554 37.552 389.866 37.552C389.29 37.552 388.778 38.064 388.778 38.64C388.778 39.216 389.29 39.728 389.866 39.728C393.002 39.728 396.01 38.832 398.122 37.232C400.618 35.44 401.194 33.392 401.194 32.048C401.194 31.088 400.938 30.32 400.49 29.488C399.978 28.72 399.274 28.016 398.314 27.376C396.394 26.096 393.322 25.008 389.61 24.304C389.546 24.304 389.482 24.304 389.418 24.304H389.354C386.346 23.728 383.85 22.96 381.93 22.064C379.562 20.976 377.834 19.504 376.746 17.712C375.914 16.432 375.466 14.896 375.466 13.296C375.466 10.288 377.066 7.408 379.882 5.36C382.57 3.376 386.09 2.352 389.738 2.352C395.178 2.352 399.274 4.976 402.218 6.896L402.346 6.96C402.794 7.28 403.114 7.792 403.242 8.304C403.37 8.816 403.242 9.392 402.922 9.84C402.666 10.288 402.218 10.608 401.642 10.736C401.13 10.8 400.618 10.736 400.106 10.416C396.778 8.176 393.706 6.32 389.738 6.32C386.986 6.32 384.298 7.152 382.314 8.624C380.074 10.288 379.562 12.08 379.562 13.296C379.562 14.256 379.754 14.96 380.138 15.6C380.586 16.24 381.226 16.88 382.122 17.52C383.85 18.672 386.666 19.696 390.122 20.336C390.186 20.336 390.25 20.336 390.314 20.336H390.442C391.018 20.336 391.53 19.888 391.53 19.248C391.53 18.672 391.018 18.16 390.442 18.16H390.378C387.37 17.584 384.81 16.688 383.338 15.728C382.506 15.152 382.122 14.64 381.994 14.448C381.802 14.192 381.738 13.936 381.738 13.296C381.738 12.272 382.378 11.312 383.594 10.352C385.194 9.2 387.434 8.496 389.738 8.496C393.13 8.496 395.882 10.16 398.954 12.208C399.85 12.848 401.002 13.04 402.154 12.848C403.242 12.592 404.138 11.952 404.714 11.056C405.354 10.096 405.61 9.008 405.354 7.856C405.162 6.768 404.522 5.808 403.562 5.168L403.434 5.104C400.234 2.992 395.818 0.175999 389.738 0.175999C385.642 0.175999 381.674 1.392 378.602 3.568C375.274 6.064 373.29 9.648 373.29 13.296C373.29 15.344 373.866 17.264 374.89 18.864C376.234 20.976 378.282 22.704 380.97 23.984ZM405.802 26.288C404.458 24.112 402.282 22.32 399.274 20.848C397.994 20.208 396.586 19.696 394.986 19.248C394.41 19.056 393.77 19.376 393.642 19.952C393.45 20.528 393.77 21.168 394.346 21.296C395.882 21.744 397.162 22.256 398.314 22.768C401.002 24.112 402.794 25.584 403.946 27.44C404.778 28.784 405.226 30.384 405.226 32.048C405.226 35.248 403.498 38.384 400.49 40.56C397.61 42.672 393.834 43.824 389.866 43.824C383.658 43.76 378.345 40.624 375.018 38C374.186 37.296 373.994 35.952 374.698 35.056C375.402 34.224 376.746 34.096 377.578 34.8C378.538 35.568 379.562 36.272 380.714 36.912C382.058 37.744 383.466 38.384 384.874 38.832C385.45 39.024 386.026 38.768 386.218 38.192C386.41 37.616 386.154 36.976 385.578 36.784C384.298 36.4 383.018 35.76 381.802 35.056C380.778 34.48 379.818 33.776 378.986 33.136C377.13 31.664 374.506 31.92 372.97 33.712C371.562 35.568 371.882 38.192 373.674 39.664C377.258 42.48 383.018 45.936 389.866 46C394.282 46 398.506 44.656 401.77 42.288C405.354 39.728 407.402 35.952 407.402 32.048C407.402 30 406.826 27.952 405.802 26.288Z" fill="#0BDA51"/>
</svg>
