<svg width="329" height="55" viewBox="0 0 329 55" fill="none" xmlns="http://www.w3.org/2000/svg">
<g filter="url(#filter0_d)">
<path d="M10.25 6.375H19.75C19.9375 6.52083 20.8958 6.72917 22.625 7C25.7292 8.04167 27.9375 9.75 29.25 12.125C30.0833 14.4375 30.5 16.1875 30.5 17.375V17.875C30.5 19.9792 29.75 22.2292 28.25 24.625C25.7292 27.375 22.6458 28.75 19 28.75H10.375C9.625 28.625 9.25 28.2917 9.25 27.75C9.39583 27.375 9.64583 27.0833 10 26.875H18.75C23.7708 26.875 26.9375 24.625 28.25 20.125C28.4167 19.2917 28.5 18.4583 28.5 17.625C28.5 13.1875 26.4583 10.2708 22.375 8.875C20.9167 8.54167 19.6667 8.375 18.625 8.375H10.25C9.58333 8.375 9.25 8.04167 9.25 7.375V7.25C9.4375 6.9375 9.77083 6.64583 10.25 6.375ZM7.125 6.5C7.5 6.5 7.83333 6.83333 8.125 7.5C8.04167 13.2083 8 17.4583 8 20.25V48.375C7.79167 48.7917 7.45833 49 7 49C6.64583 48.9167 6.3125 48.5417 6 47.875V7.625C6.22917 7.04167 6.5625 6.66667 7 6.5H7.125ZM57.4688 6.375V6.5L57.75 6.375C57.8333 6.375 57.875 6.41667 57.875 6.5L58.125 6.375H58.6562C58.7604 6.375 58.8125 6.41667 58.8125 6.5L59.0625 6.375L59.3438 6.5C59.4271 6.5 59.4688 6.45833 59.4688 6.375C61.8646 6.375 65.0208 7.30208 68.9375 9.15625C73.8125 11.8646 77.1979 16.0417 79.0938 21.6875C79.7188 23.8333 80.0312 25.9896 80.0312 28.1562C80.0312 32.9688 78.2917 37.5833 74.8125 42C72.375 44.625 69.6667 46.5625 66.6875 47.8125C64.4792 48.6042 63.0104 49 62.2812 49C61.8646 48.8333 61.6354 48.6562 61.5938 48.4688V48.0625C61.5938 47.3542 62.5729 46.875 64.5312 46.625C67.0938 45.8125 69.8542 44.0521 72.8125 41.3438C76.2917 37.2188 78.0312 33.0833 78.0312 28.9375V26.9688C78.0312 23.2188 76.4271 19.2604 73.2188 15.0938C68.9271 10.5938 63.8542 8.34375 58 8.34375H57.1875L56.5312 8.5V8.34375C52.7396 8.90625 49.6667 9.96875 47.3125 11.5312C43.7292 13.7604 41.0625 17.2812 39.3125 22.0938C38.7708 23.3229 38.4167 25.25 38.25 27.875C38.25 35.2083 41.7604 41.0208 48.7812 45.3125C50.6979 46.1875 52.6146 46.8438 54.5312 47.2812L54.6562 47.9375V48.3438C54.6562 48.4688 54.4792 48.6458 54.125 48.875H54C51.25 48.875 47.6875 47.1562 43.3125 43.7188C38.6875 38.9896 36.375 33.7604 36.375 28.0312C36.375 21.4896 39.0938 15.8542 44.5312 11.125C48.9688 7.95833 53.2812 6.375 57.4688 6.375ZM92 6.375H100.75C108.333 7.33333 112.125 11.0833 112.125 17.625C112.125 21.5625 110.542 24.5625 107.375 26.625H106.875C106.771 26.625 106.562 26.4167 106.25 26V25.75C106.25 25.3958 106.917 24.6458 108.25 23.5C109.583 21.7292 110.25 19.7708 110.25 17.625C110.25 13.0833 108.083 10.1667 103.75 8.875C102.646 8.54167 101.271 8.375 99.625 8.375H92C91.5417 8.375 91.2083 8.16667 91 7.75V7.5C91 6.97917 91.3333 6.60417 92 6.375ZM88.5 6.625H89.125C89.2292 6.625 89.4375 6.83333 89.75 7.25V26.875H104C104.708 26.875 105.375 28 106 30.25C110.75 41.875 113.125 47.8333 113.125 48.125C112.875 48.7083 112.5 49 112 49C111.5 49 110.375 46.5417 108.625 41.625C105.208 33.3125 103.5 29.0208 103.5 28.75H89C88.25 28.6458 87.875 28.2708 87.875 27.625V7.625C87.875 7.16667 88.0833 6.83333 88.5 6.625ZM88.5 30H89.125C89.2292 30 89.4375 30.2083 89.75 30.625V47.875C89.75 48.3333 89.5417 48.6667 89.125 48.875H88.5C88.0833 48.6667 87.875 48.3333 87.875 47.875V31C87.875 30.5417 88.0833 30.2083 88.5 30ZM114.062 6.375H130.062C130.729 6.70833 131.062 7.125 131.062 7.625V47.875C130.938 48.625 130.604 49 130.062 49C129.479 48.8333 129.188 48.5 129.188 48V8.375H114.062C113.604 8.375 113.229 8.125 112.938 7.625V7.375C113.125 6.9375 113.5 6.60417 114.062 6.375ZM133.312 6.375H146.312C146.896 6.72917 147.188 6.97917 147.188 7.125V7.75C147.188 7.85417 146.979 8.0625 146.562 8.375H133.312C132.646 8.375 132.312 8.04167 132.312 7.375C132.312 7.02083 132.646 6.6875 133.312 6.375ZM157.062 6.375H186.312C186.979 6.70833 187.312 7.125 187.312 7.625C187.146 8.125 186.812 8.375 186.312 8.375H157.062C156.396 8.375 156.062 8.04167 156.062 7.375V7.25C156.25 6.9375 156.583 6.64583 157.062 6.375ZM153.562 6.625H154.312C154.646 6.75 154.812 7.04167 154.812 7.5V48.375C154.604 48.7917 154.271 49 153.812 49C153.458 48.9167 153.125 48.5417 152.812 47.875V7.625C153.146 6.95833 153.396 6.625 153.562 6.625ZM157.062 26.875H178.188C178.854 26.875 179.188 27.2083 179.188 27.875C179.083 28.4583 178.708 28.75 178.062 28.75H157.188C156.729 28.75 156.354 28.5 156.062 28V27.875C156.062 27.2083 156.396 26.875 157.062 26.875ZM207.844 6.375V6.5L208.125 6.375C208.208 6.375 208.25 6.41667 208.25 6.5L208.5 6.375H209.031C209.135 6.375 209.188 6.41667 209.188 6.5L209.438 6.375L209.719 6.5C209.802 6.5 209.844 6.45833 209.844 6.375C212.24 6.375 215.396 7.30208 219.312 9.15625C224.188 11.8646 227.573 16.0417 229.469 21.6875C230.094 23.8333 230.406 25.9896 230.406 28.1562C230.406 32.9688 228.667 37.5833 225.188 42C222.75 44.625 220.042 46.5625 217.062 47.8125C214.854 48.6042 213.385 49 212.656 49C212.24 48.8333 212.01 48.6562 211.969 48.4688V48.0625C211.969 47.3542 212.948 46.875 214.906 46.625C217.469 45.8125 220.229 44.0521 223.188 41.3438C226.667 37.2188 228.406 33.0833 228.406 28.9375V26.9688C228.406 23.2188 226.802 19.2604 223.594 15.0938C219.302 10.5938 214.229 8.34375 208.375 8.34375H207.562L206.906 8.5V8.34375C203.115 8.90625 200.042 9.96875 197.688 11.5312C194.104 13.7604 191.438 17.2812 189.688 22.0938C189.146 23.3229 188.792 25.25 188.625 27.875C188.625 35.2083 192.135 41.0208 199.156 45.3125C201.073 46.1875 202.99 46.8438 204.906 47.2812L205.031 47.9375V48.3438C205.031 48.4688 204.854 48.6458 204.5 48.875H204.375C201.625 48.875 198.062 47.1562 193.688 43.7188C189.062 38.9896 186.75 33.7604 186.75 28.0312C186.75 21.4896 189.469 15.8542 194.906 11.125C199.344 7.95833 203.656 6.375 207.844 6.375ZM239 6.5H239.75C240.083 6.625 240.25 6.91667 240.25 7.375V47.125H263.625C264.292 47.125 264.625 47.4583 264.625 48.125C264.375 48.7083 264 49 263.5 49H239.625C239.021 49 238.562 48.5833 238.25 47.75V7.5C238.583 6.83333 238.833 6.5 239 6.5ZM270.5 6.75H271.125C271.542 6.95833 271.75 7.29167 271.75 7.75V48C271.75 48.4583 271.542 48.7917 271.125 49H270.5C270.354 49 270.104 48.7083 269.75 48.125V7.875C269.75 7.41667 270 7.04167 270.5 6.75ZM299.531 6.375V6.5L299.812 6.375C299.896 6.375 299.938 6.41667 299.938 6.5L300.188 6.375H300.719C300.823 6.375 300.875 6.41667 300.875 6.5L301.125 6.375L301.406 6.5C301.49 6.5 301.531 6.45833 301.531 6.375C303.927 6.375 307.083 7.30208 311 9.15625C315.875 11.8646 319.26 16.0417 321.156 21.6875C321.781 23.8333 322.094 25.9896 322.094 28.1562C322.094 32.9688 320.354 37.5833 316.875 42C314.438 44.625 311.729 46.5625 308.75 47.8125C306.542 48.6042 305.073 49 304.344 49C303.927 48.8333 303.698 48.6562 303.656 48.4688V48.0625C303.656 47.3542 304.635 46.875 306.594 46.625C309.156 45.8125 311.917 44.0521 314.875 41.3438C318.354 37.2188 320.094 33.0833 320.094 28.9375V26.9688C320.094 23.2188 318.49 19.2604 315.281 15.0938C310.99 10.5938 305.917 8.34375 300.062 8.34375H299.25L298.594 8.5V8.34375C294.802 8.90625 291.729 9.96875 289.375 11.5312C285.792 13.7604 283.125 17.2812 281.375 22.0938C280.833 23.3229 280.479 25.25 280.312 27.875C280.312 35.2083 283.823 41.0208 290.844 45.3125C292.76 46.1875 294.677 46.8438 296.594 47.2812L296.719 47.9375V48.3438C296.719 48.4688 296.542 48.6458 296.188 48.875H296.062C293.312 48.875 289.75 47.1562 285.375 43.7188C280.75 38.9896 278.438 33.7604 278.438 28.0312C278.438 21.4896 281.156 15.8542 286.594 11.125C291.031 7.95833 295.344 6.375 299.531 6.375Z" fill="#0BDA51"/>
</g>
<defs>
<filter id="filter0_d" x="0" y="0.375" width="328.094" height="54.625" filterUnits="userSpaceOnUse" color-interpolation-filters="sRGB">
<feFlood flood-opacity="0" result="BackgroundImageFix"/>
<feColorMatrix in="SourceAlpha" type="matrix" values="0 0 0 0 0 0 0 0 0 0 0 0 0 0 0 0 0 0 127 0"/>
<feOffset/>
<feGaussianBlur stdDeviation="3"/>
<feColorMatrix type="matrix" values="0 0 0 0 0.0431373 0 0 0 0 0.854902 0 0 0 0 0.317647 0 0 0 1 0"/>
<feBlend mode="normal" in2="BackgroundImageFix" result="effect1_dropShadow"/>
<feBlend mode="normal" in="SourceGraphic" in2="effect1_dropShadow" result="shape"/>
</filter>
</defs>
</svg>
